<mxfile host="app.diagrams.net" modified="2021-04-06T15:07:08.189Z" agent="5.0 (Macintosh; Intel Mac OS X 10_15_7) AppleWebKit/537.36 (KHTML, like Gecko) Chrome/89.0.4389.90 Safari/537.36" etag="jyN_AmG-_lIFM7eWkbss" version="14.5.7" type="github">
  <diagram id="jlVQ54RJutcMB-vLSh-o" name="Page-1">
    <mxGraphModel dx="2022" dy="771" grid="1" gridSize="10" guides="1" tooltips="1" connect="1" arrows="1" fold="1" page="1" pageScale="1" pageWidth="827" pageHeight="1169" math="0" shadow="0">
      <root>
        <mxCell id="0" />
        <mxCell id="1" parent="0" />
        <mxCell id="pIG1mHE-JtHDSWWCl5V9-18" style="orthogonalLoop=1;jettySize=auto;html=1;exitX=0.5;exitY=0;exitDx=0;exitDy=0;entryX=0.5;entryY=1;entryDx=0;entryDy=0;" edge="1" parent="1" source="s5hdMo3swykQcyM0sJtl-2" target="pIG1mHE-JtHDSWWCl5V9-12">
          <mxGeometry relative="1" as="geometry" />
        </mxCell>
        <mxCell id="pIG1mHE-JtHDSWWCl5V9-21" value="LiveStream" style="edgeLabel;html=1;align=center;verticalAlign=middle;resizable=0;points=[];" vertex="1" connectable="0" parent="pIG1mHE-JtHDSWWCl5V9-18">
          <mxGeometry x="0.0513" relative="1" as="geometry">
            <mxPoint as="offset" />
          </mxGeometry>
        </mxCell>
        <mxCell id="pIG1mHE-JtHDSWWCl5V9-27" value="OneToOne" style="edgeStyle=none;rounded=0;orthogonalLoop=1;jettySize=auto;html=1;exitX=0;exitY=0.5;exitDx=0;exitDy=0;entryX=1;entryY=0.5;entryDx=0;entryDy=0;" edge="1" parent="1" source="s5hdMo3swykQcyM0sJtl-2" target="pIG1mHE-JtHDSWWCl5V9-26">
          <mxGeometry y="25" relative="1" as="geometry">
            <mxPoint as="offset" />
          </mxGeometry>
        </mxCell>
        <mxCell id="s5hdMo3swykQcyM0sJtl-2" value="Asset" style="whiteSpace=wrap;html=1;" parent="1" vertex="1">
          <mxGeometry x="140" y="190" width="80" height="30" as="geometry" />
        </mxCell>
        <mxCell id="s5hdMo3swykQcyM0sJtl-4" value="AssetGroup" style="whiteSpace=wrap;html=1;" parent="1" vertex="1">
          <mxGeometry x="200" y="290" width="80" height="30" as="geometry" />
        </mxCell>
        <mxCell id="s5hdMo3swykQcyM0sJtl-5" value="" style="endArrow=classic;html=1;exitX=0.5;exitY=1;exitDx=0;exitDy=0;entryX=0.5;entryY=0;entryDx=0;entryDy=0;" parent="1" source="s5hdMo3swykQcyM0sJtl-2" target="s5hdMo3swykQcyM0sJtl-4" edge="1">
          <mxGeometry width="50" height="50" relative="1" as="geometry">
            <mxPoint x="390" y="590" as="sourcePoint" />
            <mxPoint x="440" y="540" as="targetPoint" />
          </mxGeometry>
        </mxCell>
        <mxCell id="s5hdMo3swykQcyM0sJtl-8" value="ManyToOne" style="edgeLabel;html=1;align=center;verticalAlign=middle;resizable=0;points=[];" parent="s5hdMo3swykQcyM0sJtl-5" vertex="1" connectable="0">
          <mxGeometry x="-0.05" y="-1" relative="1" as="geometry">
            <mxPoint x="-7.52" y="-3.64" as="offset" />
          </mxGeometry>
        </mxCell>
        <mxCell id="pIG1mHE-JtHDSWWCl5V9-20" style="rounded=0;orthogonalLoop=1;jettySize=auto;html=1;exitX=0.5;exitY=0;exitDx=0;exitDy=0;entryX=0.25;entryY=1;entryDx=0;entryDy=0;" edge="1" parent="1" source="pIG1mHE-JtHDSWWCl5V9-9" target="pIG1mHE-JtHDSWWCl5V9-14">
          <mxGeometry relative="1" as="geometry" />
        </mxCell>
        <mxCell id="pIG1mHE-JtHDSWWCl5V9-22" value="Static" style="edgeLabel;html=1;align=center;verticalAlign=middle;resizable=0;points=[];" vertex="1" connectable="0" parent="pIG1mHE-JtHDSWWCl5V9-20">
          <mxGeometry x="-0.1166" y="-2" relative="1" as="geometry">
            <mxPoint x="4.53" y="-7.28" as="offset" />
          </mxGeometry>
        </mxCell>
        <mxCell id="pIG1mHE-JtHDSWWCl5V9-9" value="Asset" style="whiteSpace=wrap;html=1;" vertex="1" parent="1">
          <mxGeometry x="260" y="190" width="80" height="30" as="geometry" />
        </mxCell>
        <mxCell id="pIG1mHE-JtHDSWWCl5V9-10" value="" style="endArrow=classic;html=1;exitX=0.5;exitY=1;exitDx=0;exitDy=0;" edge="1" parent="1" source="pIG1mHE-JtHDSWWCl5V9-9">
          <mxGeometry width="50" height="50" relative="1" as="geometry">
            <mxPoint x="390" y="590" as="sourcePoint" />
            <mxPoint x="240" y="290" as="targetPoint" />
          </mxGeometry>
        </mxCell>
        <mxCell id="pIG1mHE-JtHDSWWCl5V9-11" value="ManyToOne" style="edgeLabel;html=1;align=center;verticalAlign=middle;resizable=0;points=[];" vertex="1" connectable="0" parent="pIG1mHE-JtHDSWWCl5V9-10">
          <mxGeometry x="-0.3517" y="1" relative="1" as="geometry">
            <mxPoint x="5.22" y="6.970000000000001" as="offset" />
          </mxGeometry>
        </mxCell>
        <mxCell id="pIG1mHE-JtHDSWWCl5V9-12" value="&lt;meta charset=&quot;utf-8&quot;&gt;&lt;b style=&quot;font-weight: normal&quot; id=&quot;docs-internal-guid-0f073973-7fff-128c-2dd6-fd4f54b8fba7&quot;&gt;&lt;img width=&quot;112px;&quot; height=&quot;36px;&quot; src=&quot;https://lh3.googleusercontent.com/moUIRsZ1jEKVraeA3_ruoL0zZlKVkELPQ5vEorCDa4Q2_4CtAe1N1Kux7FhtR7qN0haTPoQy_97jtew4BKWFIy2a9m7a5TdXx-X8vQc3whtYIYYN0-1AghXnTcwje9f2EM1WHVUG53Dh5w&quot;&gt;&lt;/b&gt;" style="text;whiteSpace=wrap;html=1;" vertex="1" parent="1">
          <mxGeometry x="130" y="70" width="140" height="50" as="geometry" />
        </mxCell>
        <mxCell id="pIG1mHE-JtHDSWWCl5V9-14" value="&lt;meta charset=&quot;utf-8&quot;&gt;&lt;b style=&quot;font-weight: normal&quot; id=&quot;docs-internal-guid-debdb4e1-7fff-314e-bcb0-e49847668a86&quot;&gt;&lt;img width=&quot;46px;&quot; height=&quot;63px;&quot; src=&quot;https://lh5.googleusercontent.com/fuSW8iK2bHO0453A4wwoxDLhwnSIyXBcf46Ny87PUOe9MnXREErEF9GBUxKITXfuMhSD7DCXscXTDZT6Wr01uNbLCwHL2WVILOt6RERZuAauYnUJ3N5EnTzgtxGDDz3yeL3vslos12ng4A&quot;&gt;&lt;/b&gt;" style="text;whiteSpace=wrap;html=1;" vertex="1" parent="1">
          <mxGeometry x="360" y="55" width="70" height="80" as="geometry" />
        </mxCell>
        <mxCell id="pIG1mHE-JtHDSWWCl5V9-15" value="&lt;meta charset=&quot;utf-8&quot;&gt;&lt;b style=&quot;font-weight: normal&quot; id=&quot;docs-internal-guid-70df078c-7fff-4bed-1c45-12ffc66bde9b&quot;&gt;&lt;img width=&quot;112px;&quot; height=&quot;51px;&quot; src=&quot;https://lh3.googleusercontent.com/hgXjVIHaD0-EnfL0vmMI1Dp9MZOZ903wTi-jQojSy3NgELD4a6DDZWJNZQV_jQ387VCq6a7_guCQtjx3vEerCDUwBuQrxofgdycoHSELPqFxCEAOP1_kCNDRZ-P0WpfmMifQe2zCHjR3ZQ&quot;&gt;&lt;/b&gt;" style="text;whiteSpace=wrap;html=1;" vertex="1" parent="1">
          <mxGeometry x="460" y="40" width="140" height="70" as="geometry" />
        </mxCell>
        <mxCell id="pIG1mHE-JtHDSWWCl5V9-23" value="OneToOne" style="edgeStyle=none;rounded=0;orthogonalLoop=1;jettySize=auto;html=1;exitX=0.5;exitY=0;exitDx=0;exitDy=0;entryX=0.5;entryY=1;entryDx=0;entryDy=0;" edge="1" parent="1" source="pIG1mHE-JtHDSWWCl5V9-19" target="s5hdMo3swykQcyM0sJtl-4">
          <mxGeometry relative="1" as="geometry" />
        </mxCell>
        <mxCell id="pIG1mHE-JtHDSWWCl5V9-25" value="OneToMany" style="edgeStyle=none;rounded=0;orthogonalLoop=1;jettySize=auto;html=1;exitX=0.5;exitY=1;exitDx=0;exitDy=0;entryX=0.5;entryY=0;entryDx=0;entryDy=0;" edge="1" parent="1" source="pIG1mHE-JtHDSWWCl5V9-19" target="pIG1mHE-JtHDSWWCl5V9-24">
          <mxGeometry relative="1" as="geometry" />
        </mxCell>
        <mxCell id="pIG1mHE-JtHDSWWCl5V9-19" value="Performance" style="whiteSpace=wrap;html=1;" vertex="1" parent="1">
          <mxGeometry x="200" y="380" width="80" height="30" as="geometry" />
        </mxCell>
        <mxCell id="pIG1mHE-JtHDSWWCl5V9-28" style="edgeStyle=none;orthogonalLoop=1;jettySize=auto;html=1;exitX=0;exitY=0.5;exitDx=0;exitDy=0;entryX=0.5;entryY=1;entryDx=0;entryDy=0;curved=1;" edge="1" parent="1" source="pIG1mHE-JtHDSWWCl5V9-24" target="s5hdMo3swykQcyM0sJtl-2">
          <mxGeometry relative="1" as="geometry">
            <Array as="points">
              <mxPoint x="90" y="340" />
            </Array>
          </mxGeometry>
        </mxCell>
        <mxCell id="pIG1mHE-JtHDSWWCl5V9-29" value="OneToOne&lt;br style=&quot;font-size: 8px&quot;&gt;&lt;font style=&quot;font-size: 7px&quot;&gt;Stream&lt;/font&gt;" style="edgeLabel;html=1;align=center;verticalAlign=middle;resizable=0;points=[];" vertex="1" connectable="0" parent="pIG1mHE-JtHDSWWCl5V9-28">
          <mxGeometry x="-0.1899" y="-31" relative="1" as="geometry">
            <mxPoint as="offset" />
          </mxGeometry>
        </mxCell>
        <mxCell id="pIG1mHE-JtHDSWWCl5V9-44" style="edgeStyle=none;curved=1;orthogonalLoop=1;jettySize=auto;html=1;exitX=1;exitY=0.5;exitDx=0;exitDy=0;entryX=0;entryY=0.5;entryDx=0;entryDy=0;" edge="1" parent="1" source="pIG1mHE-JtHDSWWCl5V9-24" target="pIG1mHE-JtHDSWWCl5V9-30">
          <mxGeometry relative="1" as="geometry" />
        </mxCell>
        <mxCell id="pIG1mHE-JtHDSWWCl5V9-24" value="Showing" style="whiteSpace=wrap;html=1;" vertex="1" parent="1">
          <mxGeometry x="200" y="450" width="80" height="30" as="geometry" />
        </mxCell>
        <mxCell id="pIG1mHE-JtHDSWWCl5V9-26" value="Signing Key" style="whiteSpace=wrap;html=1;" vertex="1" parent="1">
          <mxGeometry x="20" y="190" width="80" height="30" as="geometry" />
        </mxCell>
        <mxCell id="pIG1mHE-JtHDSWWCl5V9-42" style="edgeStyle=none;curved=1;orthogonalLoop=1;jettySize=auto;html=1;exitX=1;exitY=0.5;exitDx=0;exitDy=0;entryX=0;entryY=0.5;entryDx=0;entryDy=0;" edge="1" parent="1" source="pIG1mHE-JtHDSWWCl5V9-30" target="pIG1mHE-JtHDSWWCl5V9-31">
          <mxGeometry relative="1" as="geometry" />
        </mxCell>
        <mxCell id="pIG1mHE-JtHDSWWCl5V9-30" value="Ticket" style="whiteSpace=wrap;html=1;" vertex="1" parent="1">
          <mxGeometry x="320" y="450" width="80" height="30" as="geometry" />
        </mxCell>
        <mxCell id="pIG1mHE-JtHDSWWCl5V9-53" style="edgeStyle=none;curved=1;orthogonalLoop=1;jettySize=auto;html=1;exitX=1;exitY=0.5;exitDx=0;exitDy=0;entryX=0;entryY=0.5;entryDx=0;entryDy=0;" edge="1" parent="1" source="pIG1mHE-JtHDSWWCl5V9-31" target="pIG1mHE-JtHDSWWCl5V9-40">
          <mxGeometry relative="1" as="geometry" />
        </mxCell>
        <mxCell id="pIG1mHE-JtHDSWWCl5V9-31" value="Purchaseable" style="whiteSpace=wrap;html=1;" vertex="1" parent="1">
          <mxGeometry x="575" y="450" width="90" height="30" as="geometry" />
        </mxCell>
        <mxCell id="pIG1mHE-JtHDSWWCl5V9-39" style="edgeStyle=none;curved=1;orthogonalLoop=1;jettySize=auto;html=1;exitX=0.5;exitY=1;exitDx=0;exitDy=0;entryX=0.5;entryY=0;entryDx=0;entryDy=0;" edge="1" parent="1" source="pIG1mHE-JtHDSWWCl5V9-32" target="pIG1mHE-JtHDSWWCl5V9-31">
          <mxGeometry relative="1" as="geometry" />
        </mxCell>
        <mxCell id="pIG1mHE-JtHDSWWCl5V9-58" style="edgeStyle=none;curved=1;orthogonalLoop=1;jettySize=auto;html=1;exitX=0.5;exitY=0;exitDx=0;exitDy=0;entryX=0.5;entryY=1;entryDx=0;entryDy=0;" edge="1" parent="1" source="pIG1mHE-JtHDSWWCl5V9-32" target="pIG1mHE-JtHDSWWCl5V9-45">
          <mxGeometry relative="1" as="geometry" />
        </mxCell>
        <mxCell id="pIG1mHE-JtHDSWWCl5V9-32" value="User" style="whiteSpace=wrap;html=1;" vertex="1" parent="1">
          <mxGeometry x="580" y="380" width="80" height="30" as="geometry" />
        </mxCell>
        <mxCell id="pIG1mHE-JtHDSWWCl5V9-36" style="edgeStyle=none;curved=1;orthogonalLoop=1;jettySize=auto;html=1;exitX=0;exitY=0.5;exitDx=0;exitDy=0;entryX=1;entryY=0.5;entryDx=0;entryDy=0;" edge="1" parent="1" source="pIG1mHE-JtHDSWWCl5V9-33" target="pIG1mHE-JtHDSWWCl5V9-19">
          <mxGeometry relative="1" as="geometry" />
        </mxCell>
        <mxCell id="pIG1mHE-JtHDSWWCl5V9-37" style="edgeStyle=none;curved=1;orthogonalLoop=1;jettySize=auto;html=1;exitX=1;exitY=0.5;exitDx=0;exitDy=0;entryX=0;entryY=0.5;entryDx=0;entryDy=0;" edge="1" parent="1" source="pIG1mHE-JtHDSWWCl5V9-33" target="pIG1mHE-JtHDSWWCl5V9-34">
          <mxGeometry relative="1" as="geometry" />
        </mxCell>
        <mxCell id="pIG1mHE-JtHDSWWCl5V9-51" style="edgeStyle=none;curved=1;orthogonalLoop=1;jettySize=auto;html=1;exitX=0.5;exitY=0;exitDx=0;exitDy=0;entryX=0.5;entryY=1;entryDx=0;entryDy=0;" edge="1" parent="1" source="pIG1mHE-JtHDSWWCl5V9-33" target="pIG1mHE-JtHDSWWCl5V9-48">
          <mxGeometry relative="1" as="geometry" />
        </mxCell>
        <mxCell id="pIG1mHE-JtHDSWWCl5V9-33" value="Host" style="whiteSpace=wrap;html=1;" vertex="1" parent="1">
          <mxGeometry x="320" y="380" width="80" height="30" as="geometry" />
        </mxCell>
        <mxCell id="pIG1mHE-JtHDSWWCl5V9-38" style="edgeStyle=none;curved=1;orthogonalLoop=1;jettySize=auto;html=1;exitX=1;exitY=0.5;exitDx=0;exitDy=0;entryX=0;entryY=0.5;entryDx=0;entryDy=0;" edge="1" parent="1" source="pIG1mHE-JtHDSWWCl5V9-34" target="pIG1mHE-JtHDSWWCl5V9-32">
          <mxGeometry relative="1" as="geometry" />
        </mxCell>
        <mxCell id="pIG1mHE-JtHDSWWCl5V9-34" value="Membership" style="whiteSpace=wrap;html=1;" vertex="1" parent="1">
          <mxGeometry x="445" y="380" width="80" height="30" as="geometry" />
        </mxCell>
        <mxCell id="pIG1mHE-JtHDSWWCl5V9-65" style="edgeStyle=none;curved=1;orthogonalLoop=1;jettySize=auto;html=1;exitX=0.5;exitY=1;exitDx=0;exitDy=0;entryX=1;entryY=0.5;entryDx=0;entryDy=0;" edge="1" parent="1" source="pIG1mHE-JtHDSWWCl5V9-40" target="pIG1mHE-JtHDSWWCl5V9-63">
          <mxGeometry relative="1" as="geometry">
            <Array as="points">
              <mxPoint x="740" y="525" />
            </Array>
          </mxGeometry>
        </mxCell>
        <mxCell id="pIG1mHE-JtHDSWWCl5V9-40" value="Invoice" style="whiteSpace=wrap;html=1;" vertex="1" parent="1">
          <mxGeometry x="700" y="450" width="90" height="30" as="geometry" />
        </mxCell>
        <mxCell id="pIG1mHE-JtHDSWWCl5V9-61" style="edgeStyle=none;curved=1;orthogonalLoop=1;jettySize=auto;html=1;exitX=1;exitY=0.5;exitDx=0;exitDy=0;entryX=0;entryY=0.5;entryDx=0;entryDy=0;" edge="1" parent="1" source="pIG1mHE-JtHDSWWCl5V9-45" target="pIG1mHE-JtHDSWWCl5V9-46">
          <mxGeometry relative="1" as="geometry" />
        </mxCell>
        <mxCell id="pIG1mHE-JtHDSWWCl5V9-45" value="Purchaseable" style="whiteSpace=wrap;html=1;" vertex="1" parent="1">
          <mxGeometry x="575" y="300" width="90" height="30" as="geometry" />
        </mxCell>
        <mxCell id="pIG1mHE-JtHDSWWCl5V9-46" value="Invoice" style="whiteSpace=wrap;html=1;" vertex="1" parent="1">
          <mxGeometry x="700" y="300" width="90" height="30" as="geometry" />
        </mxCell>
        <mxCell id="pIG1mHE-JtHDSWWCl5V9-59" style="edgeStyle=none;curved=1;orthogonalLoop=1;jettySize=auto;html=1;exitX=0.5;exitY=1;exitDx=0;exitDy=0;entryX=0.5;entryY=0;entryDx=0;entryDy=0;" edge="1" parent="1" source="pIG1mHE-JtHDSWWCl5V9-47" target="pIG1mHE-JtHDSWWCl5V9-45">
          <mxGeometry relative="1" as="geometry" />
        </mxCell>
        <mxCell id="pIG1mHE-JtHDSWWCl5V9-47" value="Patreonage" style="whiteSpace=wrap;html=1;" vertex="1" parent="1">
          <mxGeometry x="575" y="230" width="90" height="30" as="geometry" />
        </mxCell>
        <mxCell id="pIG1mHE-JtHDSWWCl5V9-54" style="edgeStyle=none;curved=1;orthogonalLoop=1;jettySize=auto;html=1;exitX=0.5;exitY=0;exitDx=0;exitDy=0;entryX=0;entryY=0.5;entryDx=0;entryDy=0;" edge="1" parent="1" source="pIG1mHE-JtHDSWWCl5V9-48" target="pIG1mHE-JtHDSWWCl5V9-50">
          <mxGeometry relative="1" as="geometry" />
        </mxCell>
        <mxCell id="pIG1mHE-JtHDSWWCl5V9-48" value="Purchaseable" style="whiteSpace=wrap;html=1;" vertex="1" parent="1">
          <mxGeometry x="315" y="300" width="90" height="30" as="geometry" />
        </mxCell>
        <mxCell id="pIG1mHE-JtHDSWWCl5V9-57" style="edgeStyle=none;curved=1;orthogonalLoop=1;jettySize=auto;html=1;exitX=0;exitY=0.5;exitDx=0;exitDy=0;entryX=1;entryY=0.5;entryDx=0;entryDy=0;" edge="1" parent="1" source="pIG1mHE-JtHDSWWCl5V9-49" target="pIG1mHE-JtHDSWWCl5V9-48">
          <mxGeometry relative="1" as="geometry" />
        </mxCell>
        <mxCell id="pIG1mHE-JtHDSWWCl5V9-49" value="Subscription" style="whiteSpace=wrap;html=1;" vertex="1" parent="1">
          <mxGeometry x="435" y="300" width="90" height="30" as="geometry" />
        </mxCell>
        <mxCell id="pIG1mHE-JtHDSWWCl5V9-50" value="Invoice" style="whiteSpace=wrap;html=1;" vertex="1" parent="1">
          <mxGeometry x="435" y="230" width="90" height="30" as="geometry" />
        </mxCell>
        <mxCell id="pIG1mHE-JtHDSWWCl5V9-66" style="edgeStyle=none;curved=1;orthogonalLoop=1;jettySize=auto;html=1;exitX=0;exitY=0.5;exitDx=0;exitDy=0;entryX=0.5;entryY=1;entryDx=0;entryDy=0;" edge="1" parent="1" source="pIG1mHE-JtHDSWWCl5V9-63" target="pIG1mHE-JtHDSWWCl5V9-24">
          <mxGeometry relative="1" as="geometry">
            <Array as="points">
              <mxPoint x="400" y="530" />
            </Array>
          </mxGeometry>
        </mxCell>
        <mxCell id="pIG1mHE-JtHDSWWCl5V9-63" value="Access Token" style="whiteSpace=wrap;html=1;" vertex="1" parent="1">
          <mxGeometry x="575" y="510" width="90" height="30" as="geometry" />
        </mxCell>
        <mxCell id="pIG1mHE-JtHDSWWCl5V9-71" value="User has Purchased Showing to Performance&amp;nbsp;&lt;br&gt;User -&amp;gt; Performance -&amp;gt; Ticket -&amp;gt; Purchaseable &amp;lt;- User" style="text;html=1;align=center;verticalAlign=middle;resizable=0;points=[];autosize=1;" vertex="1" parent="1">
          <mxGeometry x="80" y="585" width="310" height="30" as="geometry" />
        </mxCell>
      </root>
    </mxGraphModel>
  </diagram>
</mxfile>
